<?xml version="1.0" encoding="UTF-8"?>
<svg id="Layer_1" data-name="Layer 1" xmlns="http://www.w3.org/2000/svg" width="264.404" height="92.58" viewBox="0 0 264.404 92.58">
  <path d="M236.559,32.686c-.412-.05-.829-.084-1.254-.084h-.855c-.012,0-.024-.001-.036-.001-.015,0-.03.001-.045.001h-24.268c-5.69-.001-10.303,4.612-10.303,10.302h0c0,5.69,4.613,10.303,10.303,10.303h25.203c.019,0,.038-.002.057-.002,4.765.475,8.487,4.496,8.487,9.386,0,5.21-4.224,9.433-9.434,9.433-2.491,0-4.749-.973-6.436-2.55l-.07.064-.722-.722c-4.024-4.024-10.547-4.024-14.571,0h0c-3.969,3.969-4.015,10.365-.155,14.4,5.458,5.691,13.445,9.364,21.953,9.364,16.563,0,29.99-13.426,29.99-29.989,0-15.841-12.284-28.804-27.845-29.905Z" fill="#929497"/>
  <path d="M20.602,69.615h46.899c5.69,0,10.303,4.613,10.303,10.303h0c0,5.69-4.613,10.303-10.303,10.303H0l20.602-20.606Z" fill="#929497"/>
  <rect x="48.862" y="-7.12" width="20.606" height="88.86" rx="10.303" ry="10.303" transform="translate(96.474 -21.856) rotate(90)" fill="#929497"/>
  <rect x="35.94" y="18.247" width="20.606" height="80.787" rx="10.303" ry="10.303" transform="translate(-27.921 49.874) rotate(-45)" fill="#929497"/>
  <rect x="82.989" y="0" width="20.606" height="90.221" rx="10.303" ry="10.303" fill="#929497"/>
  <rect x="102.819" y="21.741" width="20.606" height="76.694" rx="10.303" ry="10.303" transform="translate(75.622 -62.39) rotate(45)" fill="#929497"/>
  <rect x="112.745" y="45.703" width="20.606" height="48.621" rx="10.303" ry="10.303" transform="translate(-13.468 107.513) rotate(-44.999)" fill="#929497"/>
  <rect x="142.878" y="21.742" width="20.606" height="76.694" rx="10.303" ry="10.303" transform="translate(2.376 125.914) rotate(-45)" fill="#929497"/>
  <rect x="181.25" y="24.954" width="20.606" height="72.93" rx="10.303" ry="10.303" transform="translate(283.569 240.298) rotate(-134.999)" fill="#929497"/>
  <circle cx="131.612" cy="9.434" r="9.434" fill="#929497"/>
</svg>